# xmcd CD database file
#
# Track frame offsets:
#	150
#	17766
#	47509
#	68853
#	91878
#	164879
#	185877
#	204566
#	214951
#	294056
#
# Disc length: 4684 seconds
#
# Revision: 6
# Processed by: cddbd v1.5.2PL0 Copyright (c) Steve Scherf et al.
# Submitted via: CDex 1.51
#
DISCID=94124a0a
DTITLE=Various Artist - Tan Dun - Tõru Takemitsu - Hikaru Hayashi  (Roman Balashov, Moscow Solists)
DYEAR=2008
DGENRE=Contemporain
TTITLE0=Tan Dun - Concerto for String Orchestra and Pipa - I. Andante molto
TTITLE1=Tan Dun - Concerto for String Orchestra and Pipa - II. Allegro
TTITLE2=Tan Dun - Concerto for String Orchestra and Pipa - III. Adagio
TTITLE3=Tan Dun - Concerto for String Orchestra and Pipa - IV. Allegro vivace
TTITLE4=Tõru Takemitsu - Nostalghia for solo violin and string orchestra
TTITLE5=Tõru Takemitsu - Music of Training and Rest José Torres
TTITLE6=Tõru Takemitsu - Funeral Music Black Rain
TTITLE7=Tõru Takemitsu - Waltz Face of Another
TTITLE8=Hikaru Hayashi - Concerto-elegia for viola and strings - I.
TTITLE9=Hikaru Hayashi - Concerto-elegia for viola and strings - II.
EXTD=YEAR: 2008
EXTT0=
EXTT1=
EXTT2=
EXTT3=
EXTT4=
EXTT5=
EXTT6=
EXTT7=
EXTT8=
EXTT9=
PLAYORDER=
